<?xml version="1.0" encoding="UTF-8"?><svg id="hexagon_sticker" xmlns="http://www.w3.org/2000/svg" xmlns:xlink="http://www.w3.org/1999/xlink" viewBox="0 0 198 198"><defs><clipPath id="clippath"><path id="sticker_clip_path" d="M177.94,141.09c0,1.8-.96,3.45-2.52,4.34l-73.94,42.15c-1.53,.88-3.42,.88-4.95,0L22.58,145.44c-1.56-.89-2.52-2.55-2.52-4.34V56.91c0-1.8,.96-3.45,2.52-4.34L96.52,10.41c1.53-.88,3.42-.88,4.95,0l73.94,42.15c1.56,.89,2.52,2.55,2.52,4.34v84.19Z" style="fill:none; stroke:#fff; stroke-miterlimit:10;"/></clipPath></defs><g id="hexagon_clip_group"><g style="clip-path:url(#clippath);"><g id="chastity_flag"><g id="stripes"><rect id="blue_stripe_lower" x="-31" y="131.81" width="260" height="57.19" style="fill:#262a82;"/><rect id="light_blue_stripe_lower" x="-31" y="99.1" width="260" height="47.9" style="fill:#58b6e7;"/><rect id="white_stripe" x="-31" y="67.54" width="260" height="47.56" style="fill:#fff;"/><rect id="light_blue_stripe_upper" x="-31" y="30" width="260" height="53.05" style="fill:#58b6e7;"/><rect id="blue_stripe_upper" x="-31" y="9" width="260" height="42" style="fill:#262a82;"/></g><path id="lock" d="M71.9,110.85c0-4.29-.02-8.57,0-12.86,.02-2.42,.52-3.02,2.85-3.71,.28-.08,.56-.18,.85-.26,.82-.23,1.2-.75,1.19-1.63-.03-3.07-.02-6.15-.05-9.22-.06-5.75,1.13-11.09,4.99-15.59,2.58-3.01,5.83-4.92,9.58-6.1,6.92-2.19,13.31-1.07,19.05,3.24,4.65,3.49,7.44,8.24,7.94,14.09,.26,3.11,.13,6.26,.18,9.39,.02,1.45,.05,2.9,.06,4.34,0,.79,.36,1.27,1.12,1.49,.65,.19,1.3,.41,1.93,.65,1.16,.45,1.83,1.34,1.91,2.55,.09,1.41,.06,2.83,.06,4.25,.03,7.15,.06,14.31,.08,21.46,0,.27,0,.53,0,.8-.07,2.16-.71,3.11-2.77,3.83-2.03,.71-4.07,1.49-6.17,1.94-3.86,.83-7.75,1.73-11.67,2.08-8.14,.73-16.17-.14-23.99-2.64-1.41-.45-2.84-.83-4.24-1.3-2.32-.78-2.92-1.57-2.94-4.03-.03-4.26,0-8.51,0-12.77h.04Zm39.66-25.36h-.07c0-1.18,.02-2.36,0-3.55-.11-5.8-2.31-10.37-7.74-13.01-7.32-3.57-15.64-.5-18.75,7.01-.58,1.4-.99,2.95-1.05,4.46-.16,3.42-.05,6.85-.05,10.28,0,.62,.28,.84,.89,.74,.82-.14,1.64-.22,2.45-.37,5.18-.98,10.39-1.22,15.62-.62,2.55,.29,5.09,.71,7.63,1.1,.75,.12,1.1-.06,1.08-.89-.04-1.71-.01-3.43-.01-5.14Z"/></g><g id="border"><path id="inner_hexagon_outline" d="M27.95,61.41v75.19c0,1.8,.96,3.45,2.52,4.34l66.05,37.65c1.53,.87,3.42,.87,4.95,0l66.05-37.65c1.56-.89,2.52-2.55,2.52-4.34V61.41c0-1.8-.96-3.45-2.52-4.34L101.48,19.41c-1.53-.87-3.42-.87-4.95,0L30.48,57.06c-1.56,.89-2.52,2.55-2.52,4.34Z" style="fill:none; stroke:#b1b1b1; stroke-miterlimit:10; stroke-width:.25px;"/><path id="white_hexagon_border" d="M175.42,52.56L101.48,10.41c-1.53-.88-3.42-.88-4.95,0L22.58,52.56c-1.56,.89-2.52,2.55-2.52,4.34v84.19c0,1.8,.96,3.45,2.52,4.34l73.94,42.15c1.53,.88,3.42,.88,4.95,0l73.94-42.15c1.56-.89,2.52-2.55,2.52-4.34V56.91c0-1.8-.96-3.45-2.52-4.34Zm-5.37,84.03c0,1.8-.96,3.45-2.52,4.34l-66.05,37.65c-1.53,.88-3.42,.88-4.95,0L30.48,140.94c-1.56-.89-2.52-2.55-2.52-4.34V61.41c0-1.8,.96-3.45,2.52-4.34L96.52,19.41c1.53-.88,3.42-.88,4.95,0l66.05,37.65c1.56,.89,2.52,2.55,2.52,4.34v75.19Z" style="fill:#fff;"/></g></g><path id="sticker_clip_path-2" d="M177.94,141.09c0,1.8-.96,3.45-2.52,4.34l-73.94,42.15c-1.53,.88-3.42,.88-4.95,0L22.58,145.44c-1.56-.89-2.52-2.55-2.52-4.34V56.91c0-1.8,.96-3.45,2.52-4.34L96.52,10.41c1.53-.88,3.42-.88,4.95,0l73.94,42.15c1.56,.89,2.52,2.55,2.52,4.34v84.19Z" style="fill:none; stroke:#fff; stroke-miterlimit:10;"/></g></svg>