<?xml version="1.0" encoding="utf-8"?>
<!-- Generator: Adobe Illustrator 27.7.0, SVG Export Plug-In . SVG Version: 6.00 Build 0)  -->
<svg version="1.1" id="hexagon_sticker" xmlns="http://www.w3.org/2000/svg" xmlns:xlink="http://www.w3.org/1999/xlink" x="0px"
	 y="0px" viewBox="0 0 198 198" style="enable-background:new 0 0 198 198;" xml:space="preserve">
<style type="text/css">
	.st0{clip-path:url(#sticker_clip_path_00000020359421870066735130000000743414868266529718_);}
	.st1{fill:#542E8E;}
	.st2{fill:#263287;}
	.st3{fill:#00853E;}
	.st4{fill:#FFF21F;}
	.st5{fill:#F58021;}
	.st6{fill:#D92632;}
	.st7{fill:#935F22;}
	.st8{fill:#00BCDA;}
	.st9{fill:#F6A0B3;}
	.st10{fill:#FFFFFF;}
	.st11{fill:none;stroke:#B2B2B2;stroke-width:0.25;stroke-miterlimit:10;}
	.st12{display:none;fill:none;stroke:#2E3192;stroke-width:0.5;stroke-miterlimit:10;}
</style>
<g id="hexagon_clip_group">
	<defs>
		<path id="sticker_clip_path" d="M177.9,141.1c0,1.8-1,3.5-2.5,4.3l-73.9,42.1c-1.5,0.9-3.4,0.9-5,0l-73.9-42.1
			c-1.6-0.9-2.5-2.5-2.5-4.3V56.9c0-1.8,1-3.5,2.5-4.3l73.9-42.1c1.5-0.9,3.4-0.9,5,0l73.9,42.1c1.6,0.9,2.5,2.5,2.5,4.3V141.1z"/>
	</defs>
	<clipPath id="sticker_clip_path_00000031899869178288467650000002833845430201663896_">
		<use xlink:href="#sticker_clip_path"  style="overflow:visible;"/>
	</clipPath>
	
		<g id="progress__x28_intersex_x29__pride_flag" style="clip-path:url(#sticker_clip_path_00000031899869178288467650000002833845430201663896_);">
		<g id="stripes_00000139980526191164264200000000896270463044002715_">
			
				<rect id="violet_stripe_00000006696613402421498130000015088352634192893616_" x="-20.7" y="134.7" class="st1" width="234" height="45"/>
			
				<rect id="indigo_stripe_00000074422117918199848330000010605151394993526170_" x="-20.7" y="110.7" class="st2" width="234" height="36"/>
			
				<rect id="green_stripe_00000122682017414889718890000013865964627281106098_" x="-20.7" y="86.7" class="st3" width="234" height="36"/>
			
				<rect id="yellow_stripe_00000013912543598080573830000015350923640309993883_" x="-20.7" y="62.7" class="st4" width="234" height="36"/>
			
				<rect id="orange_stripe_00000181052534528955788620000009382990750883040681_" x="-20.7" y="34.2" class="st5" width="234" height="40.5"/>
			
				<rect id="red_stripe_00000088820278175377920740000015830576739282339232_" x="-20.7" y="17.7" class="st6" width="234" height="33"/>
		</g>
		<g id="chevrons_00000101098033362448156400000002008636941715989688_">
			<polygon points="68.4,17.7 20.3,17.7 20.3,179.7 69.4,179.7 155.3,99.2 			"/>
			<polygon class="st7" points="53.1,17.7 20.3,17.7 20.3,179.7 54.2,179.7 140.1,99.2 			"/>
			<polygon class="st8" points="37.8,17.7 20.3,17.7 20.3,179.7 38.9,179.7 124.8,99.2 			"/>
			<polygon class="st9" points="22.6,17.7 20.3,17.7 20.3,179.7 23.6,179.7 109.5,99.2 			"/>
			<polygon id="white_chevron_00000165945676768114964190000007556754441206390161_" class="st10" points="20.3,168.6 94.3,99.2 
				20.3,29.9 			"/>
			<polygon id="yellow_chevron" class="st4" points="20.3,154.3 79,99.2 20.3,44.2 			"/>
			<path id="ring" class="st1" d="M47.9,85c-7.8,0-14.2,6.4-14.2,14.2c0,7.8,6.4,14.2,14.2,14.2s14.2-6.4,14.2-14.2
				C62.1,91.4,55.8,85,47.9,85z M47.9,109.2c-5.5,0-10-4.5-10-10c0-5.5,4.5-10,10-10s10,4.5,10,10C58,104.8,53.5,109.2,47.9,109.2z"
				/>
		</g>
	</g>
	<g id="border" style="clip-path:url(#sticker_clip_path_00000031899869178288467650000002833845430201663896_);">
		<path id="inner_hexagon_outline" class="st11" d="M28,61.4v75.2c0,1.8,1,3.5,2.5,4.3l66,37.6c1.5,0.9,3.4,0.9,5,0l66-37.6
			c1.6-0.9,2.5-2.5,2.5-4.3V61.4c0-1.8-1-3.5-2.5-4.3l-66-37.6c-1.5-0.9-3.4-0.9-5,0l-66,37.6C28.9,58,28,59.6,28,61.4z"/>
		<path id="white_hexagon_border" class="st10" d="M175.4,52.6l-73.9-42.1c-1.5-0.9-3.4-0.9-5,0L22.6,52.6c-1.6,0.9-2.5,2.5-2.5,4.3
			v84.2c0,1.8,1,3.5,2.5,4.3l73.9,42.1c1.5,0.9,3.4,0.9,5,0l73.9-42.1c1.6-0.9,2.5-2.5,2.5-4.3V56.9C177.9,55.1,177,53.5,175.4,52.6
			z M170,136.6c0,1.8-1,3.5-2.5,4.3l-66,37.6c-1.5,0.9-3.4,0.9-5,0l-66-37.6c-1.6-0.9-2.5-2.5-2.5-4.3V61.4c0-1.8,1-3.5,2.5-4.3
			l66-37.6c1.5-0.9,3.4-0.9,5,0l66,37.6c1.6,0.9,2.5,2.5,2.5,4.3V136.6z"/>
	</g>
	<use xlink:href="#sticker_clip_path"  style="overflow:visible;fill:none;stroke:#FFFFFF;stroke-miterlimit:10;"/>
</g>
<polygon id="cut_line" class="st12" points="20.1,54 20.1,144 99,189 177.9,144 177.9,54 99,9 "/>
</svg>
